<!DOCTYPE svg PUBLIC "-//W3C//DTD SVG 1.1//EN" "http://www.w3.org/Graphics/SVG/1.1/DTD/svg11.dtd">
<!-- Uploaded to: SVG Repo, www.svgrepo.com, Transformed by: SVG Repo Mixer Tools -->
<svg fill="#ff6b6b" version="1.1" id="Capa_1" xmlns="http://www.w3.org/2000/svg" xmlns:xlink="http://www.w3.org/1999/xlink" width="87px" height="87px" viewBox="-54.17 -54.17 1011.20 1011.20" xml:space="preserve" stroke="#ff6b6b" stroke-width="0.009028600000000001" transform="matrix(1, 0, 0, 1, 0, 0)rotate(0)">
<g id="SVGRepo_bgCarrier" stroke-width="0" transform="translate(0,0), scale(1)">
<path transform="translate(-54.17, -54.17), scale(31.6)" d="M16,31.2146240696311C19.76035546653578,30.912455170605977,22.10113543291333,27.4361127048369,24.78577096761879,24.78577096761879C27.49935767651614,22.10684788134592,31.148805874294638,19.804100122145876,31.411491978913546,16C31.683794819097745,12.05663470815038,29.33333874786963,8.169060644934028,26.089148624190756,5.910851375809244C23.214005143828434,3.909527344264733,19.502415304918124,5.202866219310948,16,5.272399979333084C12.621718589809104,5.339469298192443,8.799350548462142,4.0257640660513445,6.3036545353771825,6.303654535377181C3.7667260633699304,8.619179005283824,4.353811251791976,12.566899717052692,4.246656736979883,15.999999999999998C4.1340116106898055,19.60901279444224,3.4714702482312787,23.46367610115195,5.678865518270236,26.321134481729757C8.098611994078542,29.453480074755348,12.054591513410404,31.5316631764939,16,31.2146240696311" fill="#007bff" strokewidth="0"/>
</g>
<g id="SVGRepo_tracerCarrier" stroke-linecap="round" stroke-linejoin="round" stroke="#CCCCCC" stroke-width="1.8057200000000002"/>
<g id="SVGRepo_iconCarrier"> <g> <g> <path d="M671.504,577.829l110.485-432.609H902.86v-68H729.174L703.128,179.2L0,178.697l74.753,399.129h596.751V577.829z M685.766,247.188l-67.077,262.64H131.199L81.928,246.756L685.766,247.188z"/> <path d="M578.418,825.641c59.961,0,108.743-48.783,108.743-108.744s-48.782-108.742-108.743-108.742H168.717 c-59.961,0-108.744,48.781-108.744,108.742s48.782,108.744,108.744,108.744c59.962,0,108.743-48.783,108.743-108.744 c0-14.4-2.821-28.152-7.927-40.742h208.069c-5.107,12.59-7.928,26.342-7.928,40.742 C469.675,776.858,518.457,825.641,578.418,825.641z M209.46,716.897c0,22.467-18.277,40.744-40.743,40.744 c-22.466,0-40.744-18.277-40.744-40.744c0-22.465,18.277-40.742,40.744-40.742C191.183,676.155,209.46,694.432,209.46,716.897z M619.162,716.897c0,22.467-18.277,40.744-40.743,40.744s-40.743-18.277-40.743-40.744c0-22.465,18.277-40.742,40.743-40.742 S619.162,694.432,619.162,716.897z"/> </g> </g> </g>
</svg>